<svg xmlns="http://www.w3.org/2000/svg" viewBox="0 0 64 64">
  <defs>
    <linearGradient id="bg" x1="0%" y1="0%" x2="100%" y2="100%">
      <stop offset="0%" style="stop-color:#2563eb"/>
      <stop offset="100%" style="stop-color:#4f46e5"/>
    </linearGradient>
  </defs>
  <circle cx="32" cy="32" r="32" fill="url(#bg)"/>
  <path d="M42 38.5c-1.3-0.8-3-0.5-4 0.8l-1.5 2c-0.4 0.6-1.2 0.8-1.8 0.4
    C31.6 39.6 28.4 36.4 26.3 33c-0.4-0.6-0.2-1.4 0.4-1.8l2-1.5
    c1.3-1 1.6-2.7 0.8-4L27 21.8c-0.9-1.5-2.8-2-4.2-1.1l-1.8 1.1
    c-1.3 0.8-2.2 2.1-2.3 3.6c-0.5 6.8 5.5 14.8 11.2 19.6
    c3.9 3.4 10.3 5.8 14.4 3.2l1.1-0.7c1.5-0.9 2-2.9 1.1-4.3L42 38.5z"
    fill="white"/>
</svg>
